<svg xmlns="http://www.w3.org/2000/svg" viewBox="0 0 128 128">
  <defs>
    <linearGradient id="g" x1="0%" y1="0%" x2="100%" y2="100%">
      <stop offset="0%" stop-color="#6366f1"/>
      <stop offset="100%" stop-color="#8b5cf6"/>
    </linearGradient>
  </defs>
  <rect width="128" height="128" rx="28" fill="#0f172a"/>
  <g transform="translate(24,18) scale(3.3)">
    <path d="M5 4a2 2 0 0 0-2 2v14a2 2 0 0 0 2 2h6a2 2 0 0 0 2-2v-5h1a2 2 0 0 0 2-2V9.5l1.3-1.3a1 1 0 0 0-1.4-1.4L14.6 8.1 13 6.5V4a1 1 0 0 0-1-1H6a1 1 0 0 0-1-1zm1 3h5v4H6V7z" fill="url(#g)"/>
  </g>
</svg>
